<svg xmlns="http://www.w3.org/2000/svg" width="1024" height="1024" viewBox="0 0 1024 1024">
<g>
<path d="M 366.50 630.10 C350.27,634.13 331.20,633.34 315.91,628.01 C295.26,620.81 280.77,608.20 262.81,581.82 C255.00,570.37 247.06,560.24 241.90,555.15 C240.03,553.32 228.40,543.19 216.05,532.65 C203.70,522.12 191.85,511.92 189.72,509.99 L 185.85 506.47 L 194.98 495.24 C200.01,489.06 204.49,484.00 204.94,484.00 C205.40,484.00 210.66,488.11 216.63,493.12 C222.61,498.14 229.73,504.11 232.47,506.37 C258.07,527.65 273.28,542.85 283.00,556.89 C286.58,562.05 290.93,568.33 292.68,570.85 C314.01,601.44 343.56,609.82 374.73,594.13 C391.70,585.59 401.42,576.27 421.82,549.00 C429.84,538.28 439.06,526.97 442.31,523.87 C461.52,505.56 486.74,501.29 510.28,512.36 C519.83,516.85 527.61,522.53 539.68,533.80 C555.80,548.88 562.75,552.46 575.50,552.29 C595.04,552.02 621.54,534.26 632.79,513.88 C637.55,505.26 640.18,498.18 646.51,477.00 C668.59,403.03 675.43,388.93 701.28,364.10 C710.75,355.01 717.68,349.40 741.07,331.89 C770.13,310.14 779.90,303.67 781.57,305.06 C783.23,306.44 797.00,326.82 797.00,327.90 C797.00,328.53 787.93,335.24 776.64,342.96 C762.90,352.37 724.99,383.21 717.45,391.11 C702.13,407.17 694.58,423.04 682.33,465.00 C668.65,511.85 661.49,528.95 649.29,543.96 C637.65,558.28 619.21,571.51 602.00,577.89 C573.18,588.58 546.38,582.81 523.50,560.98 C502.90,541.34 496.65,537.58 484.50,537.53 C478.50,537.51 475.50,537.99 472.51,539.48 C466.97,542.23 456.51,552.90 449.45,563.00 C421.82,602.56 397.22,622.46 366.50,630.10 Z" fill="rgb(50,174,234)"/>
<path d="M 851.45 731.47 C846.24,732.83 808.19,732.99 512.04,732.93 C485.70,732.93 461.40,732.93 438.98,732.92 C182.25,732.90 172.17,732.90 164.48,728.61 C163.49,728.06 162.55,727.44 161.13,726.74 C148.77,720.66 139.17,709.47 133.88,695.00 L 131.50 688.50 L 131.22 454.00 C131.01,282.78 131.24,217.66 132.07,212.68 C135.29,193.31 151.58,176.14 171.09,171.54 C176.74,170.21 217.21,170.03 512.20,170.01 C752.74,170.00 848.39,170.31 852.20,171.11 C869.10,174.63 883.37,186.95 890.25,203.93 L 892.50 209.50 L 892.50 690.50 L 890.23 696.46 C887.21,704.39 880.71,714.20 875.35,718.92 C869.77,723.84 858.94,729.52 851.45,731.47 ZM 187.99 692.07 C191.92,693.26 832.82,693.18 837.12,691.98 C842.66,690.44 847.24,686.88 850.00,681.96 L 852.50 677.50 L 852.76 449.64 C852.94,292.77 852.69,220.56 851.97,217.88 C850.62,212.87 845.61,207.18 840.51,204.86 C836.66,203.12 823.75,203.04 512.50,203.04 C198.99,203.04 188.37,203.10 184.50,204.90 C179.87,207.05 174.70,212.18 172.81,216.50 C171.74,218.94 171.45,261.90 171.22,446.50 C170.97,653.94 171.09,673.87 172.57,677.79 C175.34,685.10 180.35,689.74 187.99,692.07 Z" fill="rgb(52,52,52)"/>
<path d="M 358.60 566.04 C353.88,568.40 351.45,568.98 346.59,568.91 C345.86,568.90 345.19,568.90 344.55,568.90 C342.78,568.90 341.32,568.90 339.89,568.68 C332.46,567.53 325.97,560.34 282.78,515.80 C258.72,491.00 258.02,490.16 256.52,484.41 C253.22,471.79 240.62,415.72 239.57,409.00 C239.09,405.92 241.76,400.02 261.78,360.00 L 284.53 314.50 L 448.80 314.25 L 613.06 313.99 L 622.78 320.81 C628.13,324.55 634.97,329.35 638.00,331.46 C659.80,346.71 670.00,354.19 670.00,354.94 C670.00,355.42 668.35,357.77 666.34,360.16 C653.37,375.57 638.79,407.12 628.99,441.00 C627.80,445.12 626.21,450.30 625.45,452.50 C624.70,454.70 621.80,463.82 619.00,472.76 C612.92,492.17 609.16,500.86 604.20,506.96 C599.05,513.30 597.55,514.46 588.63,519.00 C582.31,522.22 579.70,523.00 575.31,523.00 C570.09,523.00 569.60,522.77 564.18,517.66 C539.82,494.76 522.34,483.79 502.50,478.97 C494.97,477.14 491.70,476.87 482.50,477.33 C464.44,478.24 447.47,484.13 433.87,494.20 C418.39,505.66 407.30,516.52 382.14,544.84 C371.22,557.14 364.73,562.98 358.60,566.04 Z" fill="rgb(103,183,111)"/>
<path d="M 0.00 512.00 L 0.00 0.00 L 512.00 0.00 L 1024.00 0.00 L 1024.00 512.00 L 1024.00 1024.00 L 512.00 1024.00 L 0.00 1024.00 L 0.00 512.00 ZM 851.45 731.47 C858.94,729.52 869.77,723.84 875.35,718.92 C880.71,714.20 887.21,704.39 890.23,696.46 L 892.50 690.50 L 892.50 450.00 L 892.50 209.50 L 890.25 203.93 C883.37,186.95 869.10,174.63 852.20,171.11 C848.39,170.31 752.74,170.00 512.20,170.01 C217.21,170.03 176.74,170.21 171.09,171.54 C151.58,176.14 135.29,193.31 132.07,212.68 C131.24,217.66 131.01,282.78 131.22,454.00 L 131.50 688.50 L 133.88 695.00 C139.17,709.47 148.77,720.66 161.13,726.74 C174.61,733.38 145.36,732.86 512.04,732.93 C808.19,732.99 846.24,732.83 851.45,731.47 ZM 187.99 692.07 C180.35,689.74 175.34,685.10 172.57,677.79 C171.09,673.87 170.97,653.94 171.22,446.50 C171.45,261.90 171.74,218.94 172.81,216.50 C174.70,212.18 179.87,207.05 184.50,204.90 C188.37,203.10 198.99,203.04 512.50,203.04 C823.75,203.04 836.66,203.12 840.51,204.86 C845.61,207.18 850.62,212.87 851.97,217.88 C852.69,220.56 852.94,292.77 852.76,449.64 L 852.50 677.50 L 850.00 681.96 C847.24,686.88 842.66,690.44 837.12,691.98 C832.82,693.18 191.92,693.26 187.99,692.07 ZM 366.50 630.10 C397.22,622.46 421.82,602.56 449.45,563.00 C456.51,552.90 466.97,542.23 472.51,539.48 C475.50,537.99 478.50,537.51 484.50,537.53 C496.65,537.58 502.90,541.34 523.50,560.98 C546.38,582.81 573.18,588.58 602.00,577.89 C619.21,571.51 637.65,558.28 649.29,543.96 C661.49,528.95 668.65,511.85 682.33,465.00 C694.58,423.04 702.13,407.17 717.45,391.11 C724.99,383.21 762.90,352.37 776.64,342.96 C787.93,335.24 797.00,328.53 797.00,327.90 C797.00,326.82 783.23,306.44 781.57,305.06 C779.90,303.67 770.13,310.14 741.07,331.89 C717.68,349.40 710.75,355.01 701.28,364.10 C675.43,388.93 668.59,403.03 646.51,477.00 C640.18,498.18 637.55,505.26 632.79,513.88 C621.54,534.26 595.04,552.02 575.50,552.29 C562.75,552.46 555.80,548.88 539.68,533.80 C527.61,522.53 519.83,516.85 510.28,512.36 C486.74,501.29 461.52,505.56 442.31,523.87 C439.06,526.97 429.84,538.28 421.82,549.00 C401.42,576.27 391.70,585.59 374.73,594.13 C343.56,609.82 314.01,601.44 292.68,570.85 C290.93,568.33 286.58,562.05 283.00,556.89 C273.28,542.85 258.07,527.65 232.47,506.37 C229.73,504.11 222.61,498.14 216.63,493.12 C210.66,488.11 205.40,484.00 204.94,484.00 C204.49,484.00 200.01,489.06 194.98,495.24 L 185.85 506.47 L 189.72 509.99 C191.85,511.92 203.70,522.12 216.05,532.65 C228.40,543.19 240.03,553.32 241.90,555.15 C247.06,560.24 255.00,570.37 262.81,581.82 C280.77,608.20 295.26,620.81 315.91,628.01 C331.20,633.34 350.27,634.13 366.50,630.10 ZM 358.60 566.04 C364.73,562.98 371.22,557.14 382.14,544.84 C407.30,516.52 418.39,505.66 433.87,494.20 C447.47,484.13 464.44,478.24 482.50,477.33 C491.70,476.87 494.97,477.14 502.50,478.97 C522.34,483.79 539.82,494.76 564.18,517.66 C569.60,522.77 570.09,523.00 575.31,523.00 C579.70,523.00 582.31,522.22 588.63,519.00 C597.55,514.46 599.05,513.30 604.20,506.96 C609.16,500.86 612.92,492.17 619.00,472.76 C621.80,463.82 624.70,454.70 625.45,452.50 C626.21,450.30 627.80,445.12 628.99,441.00 C638.79,407.12 653.37,375.57 666.34,360.16 C668.35,357.77 670.00,355.42 670.00,354.94 C670.00,354.19 659.80,346.71 638.00,331.46 C634.97,329.35 628.13,324.55 622.78,320.81 L 613.06 313.99 L 448.80 314.25 L 284.53 314.50 L 261.78 360.00 C241.76,400.02 239.09,405.92 239.57,409.00 C240.62,415.72 253.22,471.79 256.52,484.41 C258.02,490.16 258.72,491.00 282.78,515.80 C337.28,572.00 333.35,568.73 346.59,568.91 C351.45,568.98 353.88,568.40 358.60,566.04 Z" fill="rgb(218,219,218)"/>
</g>
</svg>